<?xml version="1.0" encoding="utf-8"?>
<!-- Generator: Adobe Illustrator 24.2.0, SVG Export Plug-In . SVG Version: 6.00 Build 0)  -->
<svg version="1.1" id="Layer_1" xmlns="http://www.w3.org/2000/svg" xmlns:xlink="http://www.w3.org/1999/xlink" x="0px" y="0px"
	 viewBox="0 0 1224 1224" style="enable-background:new 0 0 1224 1224;" xml:space="preserve">
<style type="text/css">
	.st0{fill:#FFFFFF;}
	.st1{fill:#00923F;}
</style>
<g>
	<path class="st0" d="M526.1,1054.3c0,0-0.1,0-0.1,0c-1.9,0.2-4.2-0.4-5.9,0.4c-0.5,0.2-0.9,0.7-0.9,1.3c-0.5,7.1-0.2,14.2-0.5,21
		c0,1.3-1.7,2-2.7,1.2c-0.2-0.2-0.4-0.4-0.5-0.6c-5.4-7.2-9.9-15.1-15.5-22c-0.2-0.2-0.4-0.4-0.7-0.5c-3.3-1.3-7.3-0.5-10.9-0.5
		c-1.7,0-1.4,2.1-1.6,3.3c0,0,0,0.1,0,0.1c0,13,0,26,0,39c0.1,0.9-0.1,2.1,0.3,3c0.2,0.5,0.8,0.8,1.3,0.9c3,0.3,6,0.5,9,0
		c0.7-0.1,1.4-0.6,1.4-1.4c0.5-7.2,0.1-14.8,0.7-21.9c1.2-1.8,2.9,0.2,3.7,1.3c4.5,6.5,8.8,13,13.3,19.5c0,0,0,0.1,0.1,0.1
		c0.8,1,1.7,2.5,3.3,2.5c3.3,0.1,6.6,0.4,9.8-0.1c0.7-0.1,1.2-0.6,1.3-1.3c0.6-2.8,0.4-31.2,0.2-42.5
		C531.6,1053.9,528.1,1054.4,526.1,1054.3z"/>
	<path class="st0" d="M543,1099.3c0,0.9,0.7,1.5,1.6,1.6c3.3,0.2,6.7,0.4,10,0c0.7-0.1,1.3-0.6,1.4-1.3c0.8-5.4,0.3-10.7,0.6-16.1
		c0-0.5,0.4-0.9,0.8-1.1c1.4-0.8,3.1-0.6,4.7-0.7c3.3,0.1,6.6-0.2,9.9,0.3c1.5,0.1,2.1,1.7,2,3c0.3,4.6-0.1,9.2,0,13.7
		c0,0.6,0,1.7,0.3,2.1c0.4,0.4,1.8,0.5,2.3,0.5c3.1,0.3,6.3,0,9.4-0.4c0.6-0.1,1.2-0.5,1.4-1.2c0.4-1.5,0.2-3.2,0.3-4.7
		c-0.1-12.9,0.2-25.8-0.1-38.6c-0.3-2.7-3.5-2-5.5-2c-2.4,0-4.8-0.4-6.8,0.4c-0.5,0.2-0.9,0.7-1,1.2c-0.4,4.6-0.2,8.5-0.4,13
		c-0.2,1.9-2.3,2.1-3.7,2.1c-3.7,0-7.4,0.1-11.1-0.1c-1.2,0-2.4-0.8-2.5-2c-0.3-4.3-0.3-8.5-0.4-12.9c0-0.6-0.5-1.1-1.1-1.3
		c-3.1-1-6.5-0.5-9.9-0.3c-3-0.2-2.1,3.6-2.3,5.6C543,1073.1,542.3,1086.2,543,1099.3z"/>
	<path class="st0" d="M471.3,1054.4c-2.9-0.3-6-0.1-8.9,0.2c-1.5,0.2-1.4,2.2-1.4,3.3c0,13,0,26.1,0,39.1c0,0,0,0.1,0,0.1
		c0.1,1.4-0.2,4,1.9,3.8c2.6,0.2,5.2,0.3,7.8,0.1c1.9-0.1,3.4-1.6,3.6-3.5c0.7-9.2,0.5-31.1,0-40.1
		C474.1,1055.9,472.9,1054.6,471.3,1054.4z"/>
	<path class="st0" d="M420.5,1098.9c2.3,2.8,4.9,2.2,7.5,2.2c3.2,0,7.6,1.1,9.4-3c4.8-13.1,10.1-26.1,14.6-39.3
		c0.7-2.1-0.8-4.2-3-4.3c-2.2-0.1-4.5,0-6.6,0.1c-1.1,0.1-2.1,0.7-2.5,1.8c-3.7,9.2-5.8,19.1-9.1,28.4c-0.1,1.6-2.7,2.9-3.3,0.9
		c-3.7-9.7-6.2-19.9-9.6-29.7c-0.5-1.5-6.5-2-10.6-1.6c-1.7,0.2-2.9,1.9-2.3,3.6c2.9,8.9,11.9,31.9,15.3,40.5
		C420.3,1098.7,420.4,1098.8,420.5,1098.9z"/>
	<path class="st0" d="M478.9,1043.3c-0.1-0.9-0.7-1.6-1.6-1.6c-2.2,0-3.9,3.3-6.4,2.5c-3.5-0.6-7-3.5-10.6-1.8c-1.9,1-3.2,3-3.3,5.1
		c-0.1,1.1,1,2,2.1,1.7c1.6-0.4,2.9-2,4.6-2.1c0.1,0,0.3,0,0.4,0c3,0.5,5.8,2,8.8,2.3C476.3,1049.7,479.2,1046.5,478.9,1043.3z"/>
	<path class="st0" d="M981.5,194.6c-52-45.7-112.5-81.7-177.7-105.2C712.4,55.9,612,47.9,516.1,64.7c-62,10.8-122,32.6-176.8,63.6
		c-64.7,36.5-121.7,86.3-167,145c-46,59.7-79.6,128.8-98.2,201.8c-24,95.4-22.3,197.3,5.1,291.8c0.5,1.4,0.8,2.9,1.5,4.2
		c0.2,0.4,0.6,0.7,1.1,0.8c3,0.5,6,0.2,9,0.3c107,0,214,0,321.1,0c1.9-0.1,3.8,0.5,5.6,1.2c29.9,11.9,60,23.3,90,35.2
		c2.7,1.1,5.6,2,8.2,3.3c1.6,0.8,1.1,3.1-0.7,3.2c-0.4,0-0.8,0-1.1,0.1c-0.1,0-0.1,0-0.2,0c-135.6-0.1-271.2,0-406.8,0
		c-2.9,0-5.8-0.1-8.7,0.2c-1.1,0.1-1.8,1.2-1.5,2.2c2.9,8.1,6.5,15.8,9.9,23.7c1.3,2.7,2.3,5.6,4.1,8.1c0.2,0.3,0.6,0.5,1,0.6
		c2.7,0.6,5.5,0.2,8.2,0.3c331.3,0,662.7,0,994,0c3.1,0.5,4-3,5.1-5.1c4-9.1,8.2-18.1,11.6-27.4c0.4-1-0.4-2.2-1.5-2.3
		c-9.4-0.6-18.8,0-28.2-0.2c-129.7,0-259.4,0-389.1,0c-0.3,0-0.5,0-0.7,0c-1.6-0.2-2-2.3-0.6-3.1c1.6-0.9,3.6-1.3,5.3-2.1
		c29.6-11.8,59.4-23,88.9-34.8c3.3-1.2,6.5-3,10.2-2.9c107.6,0.1,215.3,0,322.9,0c2.6-0.1,5.3,0.3,7.8-0.3c0.5-0.1,1-0.5,1.2-1
		c2.7-7,4.2-14.5,6.2-21.7c27.3-107.7,22-223.7-16.5-328.1C1105.1,334.2,1051,255.6,981.5,194.6z M213.2,293.9
		c-2.6-3.4-6-6.2-7.8-10l0.4-1.2c1.9-0.1,3.7,0.7,5.5,1.4c97.7,39.2,195.3,78.7,293,117.9c3.3,1.4,7.2,2.3,9.5,5.3
		c30.1,35.9,60.4,71.7,90.5,107.6c1,1.5,3,3.1,2,5.1c-1.2,2.4-3,4.4-4.6,6.6c-25.9,34.8-51.9,69.4-77.8,104.2
		c-4,5.1-7.5,10.6-11.9,15.4c-0.5,0-1.4,0.1-1.9,0.2c-3-2.6-5.2-5.9-7.8-8.8C405.9,523,309.5,408.5,213.2,293.9z M629.9,806.5
		c-1.7,0.7-3.3-0.8-4.6-1.6c-39.7-29.3-79.5-58.7-119.2-88.1c-1.7-1-2.5-3.2-1.1-4.8c112.5-151.8,225.1-303.7,337.7-455.5
		c5.3-6.7,9.9-13.9,15.5-20.4c1.2-1.1,2.7-0.2,3.8,0.6c39.9,29.5,79.8,59,119.7,88.5c1.8,1,3.3,3.4,1.6,5.3
		c-116.3,157-232.7,313.9-349,470.9C632.9,803.1,631.7,805,629.9,806.5z M998,612.2c-31.4,9-62.8,17.8-94.2,26.5
		c-5.4,1.3-9.6,5-14.2,7.9c-62.5,40.9-125,81.6-187.5,122.5c-1.7,1.2-3.7,1.9-5.8,2.3c0.5-1.5,1-2.9,1.8-4.2
		C737.2,714.8,776,662.3,814.9,610c1.3-1.7,2.7-3.7,5.1-3.6c62-0.1,124.1,0,186.1-0.1c1.6-0.1,3,0.7,4.4,1.5
		C1006.7,610.1,1002.2,611,998,612.2z"/>
	<path class="st0" d="M635.7,976.3c4.9,2.4,9.9,6.7,10.1,12.6c0.3,13.8-0.3,27.6,0.3,41.4c0,0.9,0.7,1.6,1.6,1.6
		c12.4,0.5,24.9,0.2,37.3,0.2c1.9,0.3,2.8-1.4,2.6-3c0.1-12.7,0-25.4,0-38.1c-0.2-1.7,0.6-3.8,2.5-3.8c6.6-0.4,13.3-0.1,19.9-0.2
		c1.9-0.2,4.4,0.6,4.1,2.9c0.3,13-0.2,26.1,0.2,39.2c1,1.1,1.7,1.8,2.7,2.9c4.3,0.4,8.6,0.1,12.9,0c1.7,0.3,1.5-1.9,1.7-3
		c0-15.7,0-31.4,0-47.1c0-1.5,0-3.8-2.1-3.4c-13.2-0.4-26.4,0.2-39.6-0.3c-3.2-0.2-3.2-6,0-6.2c17.6-0.5,35.3,0.3,52.9-0.4
		c0.6,0,1.3-0.4,1.5-1c0.7-1.8,0.5-3.9,0.1-5.8c-0.2-0.7-0.8-1.2-1.5-1.3c-4.5-0.4-9.1,0.2-13.6-0.3c-3.9-0.6-5.2-6.1-9.4-5.7
		c-9.9-0.2-19.9,0.2-29.8-0.2c-2.7-0.1-2.3-4.7-5.2-4.3c-47.7-0.1-95.4-0.1-143.1,0c-3.5-0.8-2.8,4.8-6,4.4c-9,0.1-18,0-26.9,0
		c-1.5,0.1-3.2-0.1-4.6,0.4c-0.1,0.1-0.3,0.1-0.4,0.2c-2,1.4-3.3,3.7-5.5,4.8c-0.1,0.1-0.3,0.1-0.5,0.2c-4.8,1.1-9.9-0.3-14.7,0.6
		c-0.7,0.1-1.2,0.7-1.4,1.4c-0.3,1.8-0.4,3.6,0,5.3c0.2,0.7,0.7,1.2,1.4,1.3c3.2,0.4,6.4,0.1,9.6,0.2c14.4,0,28.8-0.1,43.1,0.1
		c3.8-0.3,3.7,6.8-0.1,6.4c-13.1,0.4-26.2-0.4-39.3,0.3c-0.9,0-1.6,0.8-1.6,1.7c-0.4,16.5-0.2,33.1-0.1,49.7c-0.4,2.3,2.3,2,3.9,2.1
		c0,0,0.1,0,0.1,0c3.9-0.1,7.8,0.2,11.7-0.2c0.7-0.1,1.3-0.7,1.4-1.4c0.2-1.5,0.2-3,0.2-4.5c-0.1-11.3,0-22.7,0-34
		c0-1.9-0.1-4.9,2.6-4.9c7-0.2,14-0.1,21.1,0c2.1-0.2,3.1,2,2.9,3.8c0.1,12.7,0,25.4,0,38.1c-0.2,1.3,0.2,3.2,2,3
		c11.7,0.3,23.4,0,35.1,0.1c1.7-0.1,4.9,0.4,4.7-2.2c0.2-13.3,0-26.7,0.1-40c-0.1-4.6,2.7-8.6,6.2-11.2c5.2-3.9,11.7-5.5,18-6.3
		C615.3,971.4,626.2,971.9,635.7,976.3z M660.2,973c2.8-0.8,5.8-0.7,8.7-0.3c2.3,0.6,1.8,3.4,2,5.3c-0.2,12.7,0.1,25.3-0.1,38
		c0.1,3.1-3.5,3-5.7,3c-2.2-0.1-5.9,0.3-5.9-2.8c-0.3-12.7,0-25.4-0.2-38.1C659.1,976.3,658.7,974.1,660.2,973z M567.5,1016
		c0,2.9-3.4,3-5.5,2.9c-2.2,0-6.1,0.3-6.1-2.9c-0.4-12.3,0-24.7-0.2-37c0.2-2-0.4-4.6,1.4-6c2.9-0.7,5.9-0.7,8.8-0.1
		c2,0.7,1.6,3.4,1.8,5.1C567.5,990.6,567.8,1003.3,567.5,1016z"/>
	<path class="st0" d="M701.3,1056.7c-6.7-3.5-14.7-3.8-22-2.1c-6.1,1.5-11.5,5.9-13.9,11.8c-2.7,6.8-2.8,14.6-0.5,21.6
		c2.3,6.8,8.4,12,15.5,13.2c8.1,1.3,17.5,1.1,24.1-4.6c6.8-5.7,8.2-15.5,7.1-23.8C710.9,1066.3,707.3,1059.8,701.3,1056.7z
		 M698.5,1079c-0.3,3.4-0.6,7-2.8,9.7c-3.9,4.8-12.3,4.7-16.1-0.3c-3-4.2-3.1-9.7-2.5-14.6c0.4-4.4,3-8.9,7.4-10.1
		c4-1.2,8.7,0,11.3,3.4C698.3,1070.5,698.6,1074.9,698.5,1079z"/>
	<path class="st0" d="M621.5,1097.1c0.2,1.2-0.4,3.8,1.5,3.8c10.3,0.4,20.5,0.1,30.8,0.2c0.1,0,0.1,0,0.2,0c1.3-0.2,3.2,0.3,3.8-1.2
		c0.4-2.4,0.5-4.9,0.1-7.3c-0.1-0.7-0.7-1.3-1.4-1.4c-6.4-1-13.1,0.2-19.6-0.5c-1.8-0.2-2.2-2.2-2.1-3.7c-0.1-9.6,0-19.3,0-28.9
		c0-0.1,0-0.1,0-0.2c-0.2-1.1,0.2-3.1-1.3-3.2c-3.6-0.4-7.4-0.5-11,0.1c-1.6,0.6-0.8,3-1.1,4.3c0,12.6,0,25.3,0,37.9
		C621.5,1097,621.5,1097.1,621.5,1097.1z"/>
	<path class="st0" d="M750.6,1077.8c-1.8-1.7-11.3-16.3-14.9-21.3c-1.8-3-5.7-1.9-8.6-2.1c0,0-0.1,0-0.1,0c-2,0.1-5.7-0.5-5.3,2.7
		c-0.2,13,0,26-0.1,39c0.1,1.1-0.1,2.4,0.2,3.6c0.2,0.6,0.7,1.2,1.3,1.3c2.8,0.5,5.6,0.8,8.4,0.7c0.9,0,1.8-0.1,2.3-0.6
		c0.4-0.4,0.1-1.9,0.1-2.5c0.3-6.7-0.5-13.2,0.1-19.8c0.1-1.5,2-2.1,2.9-0.9c0,0,0,0,0,0c5.7,7.1,10,15.4,15.9,22.3
		c0.2,0.3,0.5,0.5,0.9,0.6c3.4,0.8,7,0.5,10.5,0.2c0.5,0,1-0.3,1.2-0.7c0.8-1.1,0.6-30.7,0.2-44c0-0.8-0.6-1.4-1.4-1.6
		c-3-0.6-6.3-0.7-9.2,0c-0.7,0.2-1.2,0.7-1.3,1.4c-0.9,6.8,0.3,13.8-0.5,20.6C753.3,1078.1,751.6,1078.7,750.6,1077.8z"/>
	<path class="st0" d="M819,1075c-5.2,0.2-10.5-0.4-15.6,0.3c-0.7,0.1-1.2,0.6-1.4,1.3c-0.4,1.8-0.3,3.7,0,5.5c0.1,0.6,0.5,1.1,1,1.3
		c2.5,0.9,5.7-0.4,8,1.2c0.2,0.1,0.4,0.4,0.5,0.6c0.8,1.7,0.4,4-1.3,5c-3.8,2.6-9,3.4-13.4,2c-4.3-1.5-6.9-5.9-7.2-10.2
		c-0.5-5-0.6-10.6,2.4-14.9c2.7-3.9,8.2-5.2,12.6-3.7c2.1,0.8,3.5,2.7,5.1,4.1c0.3,0.3,0.7,0.4,1.2,0.4c3.3-0.2,6.6-0.9,9.8-1.9
		c1-0.3,1.5-1.4,1-2.3c-1.9-4.1-5.2-7.6-9.7-8.8c-6.2-1.7-12.8-1.5-19.1-0.5c-8.1,1.5-14.6,8.2-16.3,16.1
		c-2.1,9.3-0.4,20.4,7.4,26.7c6.9,5.4,16.2,5.2,24.5,4.1c0.1,0,0.1,0,0.2,0c5-1.2,10.5-3,14.2-6.8c0.3-0.3,0.4-0.7,0.5-1
		c0.4-5.4,0.2-10.9,0.1-16.4C823.5,1074.7,820.5,1075,819,1075z"/>
	<path class="st0" d="M516.7,933.4c-0.7,0-1.3,0.5-1.5,1.2c-0.5,1.7-0.3,3.6-0.1,5.3c0.1,0.7,0.5,1.3,1.2,1.4
		c0.8,0.2,1.8,0.2,2.6,0.2c63,0,126,0,189,0c0,0,0.1,0,0.1,0c1.2-0.1,3.6,0.2,3.6-1.7c0-1.8,0.5-3.9-0.2-5.5c-0.3-0.6-0.8-1-1.5-1
		c-12.8-0.6-25.7,0.2-38.6-0.4c-0.2,0-0.5-0.1-0.7-0.2c-4.6-2.2-7-7.2-10.9-10.4c-0.6-0.5-1.5-0.5-2.1-0.1c-2.6,1.8-4.1,5.5-7.7,5.3
		c-24.7,0-49.4,0.1-74.1,0c-3.6,0-4.8-4.7-7.9-5.5c-0.5-0.1-1,0-1.4,0.4c-3.7,3.2-6.1,7.9-10.4,10.2c-0.2,0.1-0.5,0.2-0.7,0.2
		C542.7,933.8,529.6,932.7,516.7,933.4z"/>
	<path class="st0" d="M646,911c-14.7,0-29.3,0-44,0c-7.8,0.2-15.6-0.4-23.3,0.3c-0.4,0-0.7,0.2-1,0.4c-1.2,1.2-0.5,3.9-0.5,5.5
		c0,2.1,2.3,1.7,3.7,1.8c0,0,0.1,0,0.1,0c22,0,44,0.1,66.1-0.1c3.4,0.5,2.5-3.9,2.5-6C649.9,911,647.3,911.1,646,911z"/>
	<path class="st0" d="M675.7,900.4c0.7-0.2,1.1-0.7,1.2-1.4c0.2-1.8,0.6-4-0.2-5.6c-0.2-0.5-0.7-0.7-1.2-0.8
		c-6.6-0.9-13.4,0.2-20-0.4c-0.2,0-0.5-0.1-0.7-0.2c-3.6-1.9-5.6-5.8-8.6-8.3c-0.4-0.4-1.1-0.5-1.6-0.3c-2.3,0.8-3.6,4.1-6.5,3.6
		c-15.7,0.1-31.4-0.1-47,0.1c-2-0.1-4.2,0.3-5.7-1.3c-1-0.6-1.8-1.9-2.9-2.4c-0.6-0.3-1.3-0.2-1.8,0.2c-3,2.5-5,6.1-8.3,8.2
		c-0.2,0.2-0.5,0.2-0.8,0.3c-6.7,0.7-13.5-0.2-20.3,0.4c-0.8,0.1-1.5,0.8-1.5,1.6c-0.2,2.7-1.1,6.4,2.2,6.5c40,0.2,80,0,119.9,0.1
		C673.2,900.6,674.5,900.7,675.7,900.4z"/>
	<path class="st1" d="M1213,564c-0.9-3.9-1.5-7.9-1.8-11.9c-8-83.8-34.4-165.8-76.4-238.8c-53.1-92.7-131.5-170.8-224.5-223.5
		C839.7,49.5,760.8,23.8,680,15c-19.2-2.3-38.6-3.1-57.9-4h-19.7c-19.2,0.9-38.4,1.7-57.4,4c-60.3,6.5-119.5,22.6-175,47
		c-64.5,28.5-124,68.3-174.7,117.3c-52.3,50.2-95.4,110-126.5,175.5c-26.4,55.9-44.4,115.8-52.3,177.1c-2.9,20.9-4.2,41.9-5.3,63
		c0,0,0,0.1,0,0.1v33.8c0,0,0,0.1,0,0.1c1.2,20.8,2.4,41.7,5.3,62.3c12.3,95,48.4,186.8,103.6,265.1c31,44.1,68,84.1,109.6,118.4
		c60.8,50.4,131.8,88.5,207.3,111.5c46,14,93.8,22.4,141.8,25c10.5,0.9,21,0.5,31.5,1.9c0.1,0,0.1,0,0.2,0h6.1c0.1,0,0.2,0,0.3,0
		c8.4-1.4,17-0.9,25.5-1.6c51.1-2.5,101.9-11.3,150.7-26.6c35.4-11.3,70.1-25.4,102.8-43.2c97.9-51.9,180.7-131.7,236.7-227.3
		c41.1-70.1,67.8-148.6,77.4-229.2c1.2-8.7,1.5-17.6,3.3-26.3c0-0.1,0-0.2,0-0.3v-94.1C1213,564.2,1213,564.1,1213,564z
		 M1153.2,749.2c-2,7.3-3.5,14.7-6.2,21.7c-0.2,0.5-0.7,0.9-1.2,1c-2.5,0.6-5.2,0.2-7.8,0.3c-107.6,0-215.3,0-322.9,0
		c-3.6-0.1-6.9,1.7-10.2,2.9c-29.6,11.8-59.3,23.1-88.9,34.8c-1.7,0.8-3.7,1.2-5.3,2.1c-1.4,0.8-1,3,0.6,3.1c0.2,0,0.5,0,0.7,0
		c129.7,0,259.4,0,389.1,0c9.4,0.2,18.8-0.4,28.2,0.2c1.1,0.1,1.8,1.2,1.5,2.3c-3.4,9.3-7.6,18.3-11.6,27.4c-1.1,2.2-2,5.6-5.1,5.1
		c-331.3,0.1-662.7,0-994,0c-2.7-0.1-5.5,0.3-8.2-0.3c-0.4-0.1-0.7-0.3-1-0.6c-1.8-2.4-2.8-5.4-4.1-8.1c-3.4-7.8-7-15.6-9.9-23.7
		c-0.4-1,0.4-2.1,1.5-2.2c2.9-0.2,5.8-0.2,8.7-0.2c135.6,0,271.2,0,406.8,0c0.1,0,0.1,0,0.2,0c0.3,0,0.7-0.1,1.1-0.1
		c1.8-0.1,2.2-2.4,0.7-3.2c-2.6-1.3-5.5-2.1-8.2-3.3c-29.9-11.9-60.1-23.3-90-35.2c-1.8-0.7-3.7-1.3-5.6-1.2
		c-107,0.1-214.1,0-321.1,0c-3-0.1-6.1,0.3-9-0.3c-0.5-0.1-0.9-0.4-1.1-0.8c-0.7-1.3-1.1-2.8-1.5-4.2
		c-27.5-94.5-29.1-196.3-5.1-291.8c18.5-73,52.2-142.1,98.2-201.8c45.4-58.8,102.4-108.5,167-145c54.7-31,114.8-52.8,176.8-63.6
		c95.9-16.8,196.2-8.7,287.7,24.7c65.1,23.5,125.7,59.5,177.7,105.2c69.5,61,123.6,139.5,155.2,226.5
		C1175.2,525.5,1180.5,641.5,1153.2,749.2z M407.3,1054.4c4.1-0.4,10.1,0,10.6,1.6c3.4,9.8,5.9,20,9.6,29.7c0.5,2,3.2,0.7,3.3-0.9
		c3.3-9.4,5.4-19.2,9.1-28.4c0.4-1,1.4-1.7,2.5-1.8c2.2-0.1,4.4-0.2,6.6-0.1c2.2,0.1,3.7,2.2,3,4.3c-4.5,13.2-9.8,26.2-14.6,39.3
		c-1.8,4.2-6.2,3-9.4,3c-2.6,0-5.2,0.6-7.5-2.2c-0.1-0.1-0.2-0.3-0.3-0.5c-3.4-8.6-12.4-31.6-15.3-40.5
		C404.4,1056.3,405.5,1054.6,407.3,1054.4z M473,1049.4c-3.1-0.3-5.8-1.8-8.8-2.3c-0.1,0-0.3,0-0.4,0c-1.7,0.1-3.1,1.7-4.6,2.1
		c-1.1,0.3-2.1-0.6-2.1-1.7c0.1-2.1,1.4-4.1,3.3-5.1c3.6-1.8,7.1,1.1,10.6,1.8c2.4,0.8,4.2-2.4,6.4-2.5c0.9,0,1.5,0.7,1.6,1.6
		C479.2,1046.5,476.3,1049.7,473,1049.4z M474.3,1097.6c-0.1,1.9-1.7,3.4-3.6,3.5c-2.6,0.2-5.2,0.1-7.8-0.1
		c-2.1,0.1-1.8-2.4-1.9-3.8c0,0,0-0.1,0-0.1c0-13,0-26.1,0-39.1c0.1-1.1-0.1-3.1,1.4-3.3c2.9-0.3,6-0.5,8.9-0.2
		c1.6,0.2,2.8,1.5,2.9,3.1C474.8,1066.4,475,1088.4,474.3,1097.6z M531.1,1099.5c-0.1,0.7-0.7,1.2-1.3,1.3c-3.2,0.5-6.6,0.3-9.8,0.1
		c-1.6,0-2.4-1.5-3.3-2.5c0,0,0-0.1-0.1-0.1c-4.5-6.5-8.9-13-13.3-19.5c-0.8-1.1-2.5-3.1-3.7-1.3c-0.5,7.1-0.2,14.7-0.7,21.9
		c0,0.7-0.7,1.2-1.4,1.4c-2.9,0.5-6,0.3-9,0c-0.6,0-1.1-0.4-1.3-0.9c-0.4-0.9-0.2-2.1-0.3-3c0-13,0-26,0-39c0,0,0-0.1,0-0.1
		c0.1-1.2-0.2-3.3,1.6-3.3c3.5-0.1,7.5-0.9,10.9,0.5c0.3,0.1,0.5,0.3,0.7,0.5c5.6,7,10.1,14.9,15.5,22c0.1,0.2,0.3,0.4,0.5,0.6
		c1,0.8,2.6,0.1,2.7-1.2c0.2-6.8,0-13.8,0.5-21c0-0.6,0.4-1.1,0.9-1.3c1.8-0.8,4-0.2,5.9-0.4c0,0,0.1,0,0.1,0c2,0,5.5-0.4,5.2,2.6
		C531.5,1068.3,531.6,1096.7,531.1,1099.5z M542.7,1060c0.2-2-0.7-5.7,2.3-5.6c3.4-0.2,6.8-0.7,9.9,0.3c0.6,0.2,1.1,0.7,1.1,1.3
		c0.1,4.4,0.1,8.6,0.4,12.9c0.1,1.2,1.3,2.1,2.5,2c3.7,0.2,7.4,0.1,11.1,0.1c1.5,0,3.6-0.2,3.7-2.1c0.2-4.5,0-8.4,0.4-13
		c0-0.5,0.5-1,1-1.2c2-0.9,4.5-0.4,6.8-0.4c1.9,0,5.2-0.7,5.5,2c0.3,12.9,0,25.8,0.1,38.6c-0.1,1.5,0.1,3.2-0.3,4.7
		c-0.2,0.6-0.7,1.1-1.4,1.2c-3.1,0.4-6.2,0.6-9.4,0.4c-0.5,0-1.9-0.1-2.3-0.5c-0.3-0.3-0.3-1.5-0.3-2.1c-0.1-4.5,0.3-9.2,0-13.7
		c0.1-1.3-0.5-2.8-2-3c-3.3-0.5-6.6-0.2-9.9-0.3c-1.5,0.1-3.3-0.1-4.7,0.7c-0.4,0.2-0.7,0.7-0.8,1.1c-0.3,5.3,0.2,10.6-0.6,16.1
		c-0.1,0.7-0.7,1.2-1.4,1.3c-3.3,0.5-6.7,0.2-10,0c-0.9-0.1-1.5-0.7-1.6-1.6C542.3,1086.2,543,1073.1,542.7,1060z M586.9,978.8
		c-3.5,2.6-6.3,6.7-6.2,11.2c-0.1,13.3,0.1,26.6-0.1,40c0.3,2.6-3,2.1-4.7,2.2c-11.7-0.1-23.4,0.2-35.1-0.1c-1.7,0.1-2.1-1.7-2-3
		c-0.1-12.7,0-25.4,0-38.1c0.2-1.8-0.8-4-2.9-3.8c-7-0.1-14.1-0.2-21.1,0c-2.6,0-2.6,3-2.6,4.9c0.1,11.3,0,22.7,0,34
		c0,1.5,0,3-0.2,4.5c-0.1,0.7-0.7,1.3-1.4,1.4c-3.9,0.4-7.8,0.1-11.7,0.2c0,0-0.1,0-0.1,0c-1.6-0.2-4.2,0.2-3.9-2.1
		c-0.1-16.5-0.3-33.1,0.1-49.7c0-0.9,0.7-1.6,1.6-1.7c13.1-0.6,26.2,0.1,39.3-0.3c3.9,0.4,4-6.6,0.1-6.4c-14.4-0.2-28.8,0-43.1-0.1
		c-3.2-0.1-6.5,0.2-9.6-0.2c-0.7-0.1-1.2-0.6-1.4-1.3c-0.4-1.7-0.4-3.6,0-5.3c0.1-0.7,0.7-1.2,1.4-1.4c4.8-0.9,9.9,0.4,14.7-0.6
		c0.2,0,0.3-0.1,0.5-0.2c2.2-1.1,3.5-3.4,5.5-4.8c0.1-0.1,0.3-0.2,0.4-0.2c1.5-0.5,3.1-0.4,4.6-0.4c9,0,18,0.1,26.9,0
		c3.2,0.4,2.6-5.2,6-4.4c47.7,0,95.4-0.1,143.1,0c2.9-0.3,2.5,4.2,5.2,4.3c9.9,0.4,19.9,0,29.8,0.2c4.2-0.3,5.5,5.1,9.4,5.7
		c4.5,0.5,9.1-0.1,13.6,0.3c0.7,0.1,1.3,0.6,1.5,1.3c0.5,1.9,0.6,4-0.1,5.8c-0.2,0.6-0.8,1-1.5,1c-17.6,0.6-35.3-0.2-52.9,0.4
		c-3.2,0.2-3.3,5.9,0,6.2c13.2,0.5,26.4-0.1,39.6,0.3c2.1-0.4,2.1,1.9,2.1,3.4c0,15.7,0,31.4,0,47.1c-0.1,1,0,3.3-1.7,3
		c-4.3,0.2-8.6,0.4-12.9,0c-1-1.1-1.7-1.8-2.7-2.9c-0.3-13.1,0.1-26.1-0.2-39.2c0.2-2.4-2.3-3.1-4.1-2.9c-6.6,0.1-13.3-0.2-19.9,0.2
		c-2,0-2.8,2.1-2.5,3.8c0,12.7,0.1,25.4,0,38.1c0.2,1.6-0.7,3.4-2.6,3c-12.4,0-24.9,0.4-37.3-0.2c-0.9,0-1.6-0.7-1.6-1.6
		c-0.6-13.8,0-27.6-0.3-41.4c-0.2-5.9-5.2-10.2-10.1-12.6c-9.5-4.5-20.4-4.9-30.8-3.9C598.6,973.3,592.1,974.9,586.9,978.8z
		 M647.1,919c-22,0.1-44,0-66.1,0.1c0,0-0.1,0-0.1,0c-1.4-0.1-3.8,0.3-3.7-1.8c0-1.6-0.7-4.3,0.5-5.5c0.3-0.3,0.6-0.4,1-0.4
		c7.7-0.7,15.5-0.1,23.3-0.3c14.7,0,29.3,0,44,0c1.4,0.1,3.9-0.1,3.6,2C649.6,915.1,650.5,919.5,647.1,919z M552,900.6
		c-3.3-0.1-2.4-3.8-2.2-6.5c0.1-0.8,0.7-1.5,1.5-1.6c6.7-0.6,13.5,0.3,20.3-0.4c0.3,0,0.5-0.1,0.8-0.3c3.3-2.2,5.3-5.7,8.3-8.2
		c0.5-0.4,1.2-0.5,1.8-0.2c1,0.6,1.8,1.8,2.9,2.4c1.5,1.5,3.8,1.2,5.7,1.3c15.7-0.1,31.3,0,47-0.1c2.9,0.5,4.2-2.8,6.5-3.6
		c0.6-0.2,1.2-0.1,1.6,0.3c3.1,2.6,5,6.4,8.6,8.3c0.2,0.1,0.4,0.2,0.7,0.2c6.6,0.7,13.4-0.4,20,0.4c0.5,0.1,1,0.3,1.2,0.8
		c0.8,1.5,0.4,3.7,0.2,5.6c-0.1,0.7-0.6,1.2-1.2,1.4c-1.2,0.3-2.5,0.2-3.7,0.3C632,900.6,592,900.8,552,900.6z M555.6,933
		c0.3,0,0.5-0.1,0.7-0.2c4.3-2.3,6.7-7.1,10.4-10.2c0.4-0.3,0.9-0.5,1.4-0.4c3.1,0.8,4.3,5.5,7.9,5.5c24.7,0.1,49.4,0.1,74.1,0
		c3.6,0.2,5.1-3.5,7.7-5.3c0.6-0.5,1.5-0.4,2.1,0.1c3.8,3.2,6.3,8.2,10.9,10.4c0.2,0.1,0.4,0.2,0.7,0.2c12.8,0.6,25.7-0.2,38.6,0.4
		c0.7,0,1.2,0.4,1.5,1c0.7,1.7,0.2,3.8,0.2,5.5c0,1.8-2.3,1.5-3.6,1.7c0,0-0.1,0-0.1,0c-63,0-126,0-189,0c-0.9,0-1.8,0-2.6-0.2
		c-0.7-0.2-1.1-0.8-1.2-1.4c-0.2-1.8-0.4-3.6,0.1-5.3c0.2-0.7,0.8-1.2,1.5-1.2C529.6,932.7,542.7,933.8,555.6,933z M753.9,1056.1
		c0.1-0.7,0.6-1.2,1.3-1.4c2.9-0.7,6.2-0.6,9.2,0c0.8,0.2,1.4,0.8,1.4,1.6c0.4,13.3,0.6,42.8-0.2,44c-0.3,0.4-0.7,0.6-1.2,0.7
		c-3.5,0.3-7.1,0.6-10.5-0.2c-0.3-0.1-0.7-0.3-0.9-0.6c-5.9-6.9-10.2-15.2-15.9-22.3c0,0,0,0,0,0c-0.9-1.1-2.8-0.5-2.9,0.9
		c-0.6,6.6,0.1,13.1-0.1,19.8c0,0.5,0.3,2.1-0.1,2.5c-0.5,0.5-1.5,0.6-2.3,0.6c-2.9,0.1-5.7-0.2-8.4-0.7c-0.7-0.1-1.2-0.6-1.3-1.3
		c-0.3-1.2-0.1-2.4-0.2-3.6c0.1-13-0.1-26,0.1-39c-0.5-3.2,3.2-2.6,5.3-2.7c0,0,0.1,0,0.1,0c2.9,0.2,6.8-0.9,8.6,2.1
		c3.6,5,13.1,19.6,14.9,21.3c1,1,2.7,0.4,2.8-1C754.2,1069.9,753.1,1062.9,753.9,1056.1z M704.5,1096.6c-6.5,5.7-15.9,5.9-24.1,4.6
		c-7.1-1.2-13.2-6.4-15.5-13.2c-2.3-7-2.2-14.8,0.5-21.6c2.4-5.9,7.8-10.3,13.9-11.8c7.2-1.7,15.3-1.4,22,2.1
		c5.9,3.1,9.6,9.6,10.3,16.1C712.7,1081.2,711.4,1090.9,704.5,1096.6z M621.5,1059c0.3-1.3-0.5-3.8,1.1-4.3c3.6-0.6,7.4-0.5,11-0.1
		c1.5,0.2,1.1,2.1,1.3,3.2c0,0.1,0,0.1,0,0.2c0.1,9.6-0.1,19.3,0,28.9c0,1.4,0.3,3.5,2.1,3.7c6.5,0.8,13.1-0.5,19.6,0.5
		c0.7,0.1,1.3,0.7,1.4,1.4c0.4,2.4,0.3,4.9-0.1,7.3c-0.6,1.5-2.6,1-3.8,1.2c-0.1,0-0.1,0-0.2,0c-10.3-0.1-20.6,0.2-30.8-0.2
		c-1.9,0.1-1.3-2.5-1.5-3.8c0-0.1,0-0.1,0-0.2C621.5,1084.3,621.5,1071.7,621.5,1059z M823.2,1093.3c0,0.4-0.2,0.8-0.5,1
		c-3.7,3.8-9.1,5.6-14.2,6.8c-0.1,0-0.1,0-0.2,0c-8.2,1.1-17.6,1.3-24.5-4.1c-7.8-6.3-9.4-17.4-7.4-26.7c1.7-7.9,8.3-14.6,16.3-16.1
		c6.3-1,12.9-1.2,19.1,0.5c4.5,1.2,7.8,4.7,9.7,8.8c0.4,0.9-0.1,2-1,2.3c-3.2,1-6.5,1.7-9.8,1.9c-0.4,0-0.8-0.1-1.2-0.4
		c-1.7-1.4-3-3.3-5.1-4.1c-4.4-1.5-9.8-0.3-12.6,3.7c-3,4.3-2.8,9.9-2.4,14.9c0.4,4.4,2.9,8.8,7.2,10.2c4.4,1.4,9.5,0.7,13.4-2
		c1.6-1.1,2.1-3.3,1.3-5c-0.1-0.2-0.3-0.4-0.5-0.6c-2.3-1.6-5.5-0.2-8-1.2c-0.5-0.2-0.9-0.7-1-1.3c-0.3-1.8-0.4-3.7,0-5.5
		c0.2-0.7,0.7-1.2,1.4-1.3c5.1-0.7,10.4-0.1,15.6-0.3c1.5,0.1,4.5-0.3,4.3,2C823.4,1082.4,823.7,1087.9,823.2,1093.3z"/>
	<path class="st1" d="M981.7,325.2c-39.9-29.5-79.9-58.9-119.7-88.5c-1.1-0.8-2.6-1.7-3.8-0.6c-5.6,6.4-10.1,13.7-15.5,20.4
		C730.1,408.4,617.6,560.2,505,712c-1.5,1.6-0.7,3.8,1.1,4.8c39.8,29.3,79.5,58.7,119.2,88.1c1.4,0.9,2.9,2.3,4.6,1.6
		c1.8-1.4,3-3.4,4.4-5.1c116.3-157,232.8-313.9,349-470.9C985,328.5,983.5,326.2,981.7,325.2z"/>
	<path class="st1" d="M510,646.3c0.5,0,1.4-0.1,1.9-0.2c4.3-4.8,7.8-10.3,11.9-15.4c25.9-34.8,51.9-69.4,77.8-104.2
		c1.6-2.2,3.4-4.2,4.6-6.6c1-2-1-3.6-2-5.1c-30.2-35.9-60.4-71.7-90.5-107.6c-2.3-3-6.2-3.9-9.5-5.3
		c-97.7-39.2-195.3-78.6-293-117.9c-1.8-0.7-3.6-1.5-5.5-1.4l-0.4,1.2c1.9,3.8,5.3,6.6,7.8,10C309.5,408.5,405.9,523,502.3,637.6
		C504.9,640.5,507.1,643.8,510,646.3z"/>
	<path class="st1" d="M1006.1,606.3c-62,0.1-124.1,0-186.1,0.1c-2.4-0.2-3.8,1.9-5.1,3.6c-38.9,52.4-77.7,104.9-116.7,157.3
		c-0.9,1.3-1.3,2.7-1.8,4.2c2-0.4,4-1.1,5.8-2.3c62.5-40.9,125-81.7,187.5-122.5c4.6-2.8,8.8-6.6,14.2-7.9
		c31.4-8.7,62.8-17.6,94.2-26.5c4.3-1.3,8.7-2.1,12.5-4.4C1009.1,607.1,1007.7,606.2,1006.1,606.3z"/>
	<path class="st1" d="M565.9,972.8c-2.9-0.6-5.9-0.6-8.8,0.1c-1.8,1.5-1.2,4-1.4,6c0.2,12.3-0.2,24.7,0.2,37c0,3.2,3.9,2.9,6.1,2.9
		c2.1,0.1,5.5,0,5.5-2.9c0.3-12.7,0-25.4,0.1-38C567.5,976.2,567.9,973.6,565.9,972.8z"/>
	<path class="st1" d="M659.1,1016.1c0,3.1,3.7,2.7,5.9,2.8c2.2,0,5.8,0.2,5.7-3c0.2-12.6,0-25.3,0.1-38c-0.1-1.8,0.3-4.7-2-5.3
		c-2.8-0.4-5.9-0.6-8.7,0.3c-1.6,1.1-1.1,3.3-1.2,5C659.1,990.7,658.8,1003.4,659.1,1016.1z"/>
	<path class="st1" d="M684.5,1063.7c-4.5,1.2-7,5.8-7.4,10.1c-0.6,4.9-0.5,10.4,2.5,14.6c3.7,5,12.1,5.1,16.1,0.3
		c2.2-2.7,2.6-6.4,2.8-9.7c0.1-4.1-0.2-8.5-2.7-11.9C693.2,1063.8,688.5,1062.6,684.5,1063.7z"/>
</g>
</svg>
